<svg height="511pt" viewBox="-27 0 511 511.73851" width="511pt" xmlns="http://www.w3.org/2000/svg"><path d="m425.140625 423.144531c-40.308594 12.300781-83.300781 12.761719-123.859375 1.332031-93.660156-27.097656-158.761719-112.015624-160.617188-209.496093-.511718-83.15625 45.367188-159.664063 118.957032-198.382813 3.507812-1.949218 5.269531-6.015625 4.289062-9.90625-.980468-3.890625-4.453125-6.6367185-8.464844-6.691406-71.25.25-139.238281 29.898438-187.898437 81.941406-95.777344 103.503906-88.453125 271.386719 17.566406 365.054688 51.355469 45.085937 118.363281 68.1875 186.589844 64.324218 36.921875-2.292968 72.910156-12.574218 105.472656-30.125 20.878907-11.625 39.957031-26.222656 56.628907-43.34375 2.835937-2.84375 3.394531-7.246093 1.355468-10.707031-2.039062-3.460937-6.160156-5.105469-10.019531-4zm0 0"/><path d="m392.300781 132.199219c0-34.128907-23.714843-61.792969-52.964843-61.792969-29.253907 0-52.964844 27.664062-52.964844 61.792969 0 34.125 23.710937 61.792969 52.964844 61.792969 29.25 0 52.964843-27.667969 52.964843-61.792969zm0 0"/><path d="m457.878906 233.714844c0-26.816406-18.632812-48.550782-41.617187-48.550782s-41.617188 21.734376-41.617188 48.550782c0 26.8125 18.632813 48.550781 41.617188 48.550781s41.617187-21.738281 41.617187-48.550781zm0 0"/></svg>